# xmcd
#
# Track frame offsets:
#	150
#	9740
#	23022
#	41645
#	51987
#	72174
#	91704
#	107054
#	120727
#	132445
#	146832
#	162609
#	188916
#	207874
#
# Disc length: 2904 seconds
#
# Revision: 0
# Processed by: cddbd v1.5.2PL0 Copyright (c) Steve Scherf et al.
# Submitted via: audiograbber 1.83.01
#
DISCID=c90b560e
DTITLE=Govert Roos, Ghighi N. Iovin - Shalom Chavarim
DYEAR=2011
DGENRE=Vocal
TTITLE0=David, König von Israel lebt für immer
TTITLE1=Nach Dir, Herr, verlangt mich - Psalm 25,1
TTITLE2=Siehe, wie fein und lieblich ist's, wenn Brüder einträchtig beieinander
TTITLE2=wohnen
TTITLE3=Israelisches Tanzlied - Hohelied 2,8
TTITLE4=Nicht durch Heer, nicht durch Kraft, sondern durch meinen Geist, sprich
TTITLE4=t der Herr
TTITLE5=Öffne mir die Augen, daß ich sehe die Wunder an Deinem Gesetz
TTITLE6=Lasst uns glücklich und fröhlich sein
TTITLE7=Kaffeekanne
TTITLE8=Wir brachten euch Frieden
TTITLE9=Der Herr ist mein Hirte
TTITLE10=Groß ist der Herr
TTITLE11=Jerusalem aus Gold
TTITLE12=Der Frieden im Himmel macht
TTITLE13=Friede mit euch
EXTD=
EXTT0=
EXTT1=
EXTT2=
EXTT3=
EXTT4=
EXTT5=
EXTT6=
EXTT7=
EXTT8=
EXTT9=
EXTT10=
EXTT11=
EXTT12=
EXTT13=
PLAYORDER=
